<svg xmlns="http://www.w3.org/2000/svg" viewBox="0 0 512 512" fill="none">
  <rect width="512" height="512" rx="128" fill="#0f172a"/>
  <rect x="32" y="32" width="448" height="448" rx="96" fill="url(#grad)" stroke="#3b82f6" stroke-width="8" stroke-opacity="0.3"/>
  <defs>
    <linearGradient id="grad" x1="64" y1="64" x2="448" y2="448" gradientUnits="userSpaceOnUse">
      <stop stop-color="#1e293b"/>
      <stop offset="1" stop-color="#0f172a"/>
    </linearGradient>
    <linearGradient id="gold" x1="0" y1="0" x2="1" y2="1">
      <stop stop-color="#f59e0b"/>
      <stop offset="1" stop-color="#d97706"/>
    </linearGradient>
  </defs>
  <!-- Truck / Freight Silhouette -->
  <path d="M120 280h160v-80H120v80zm160-80h60l40 40v40h-100v-80z" fill="#3b82f6" fill-opacity="0.2"/>
  <path d="M110 310h40a30 30 0 0 1 60 0h100a30 30 0 0 1 60 0h30c11 0 20-9 20-20v-50l-45-45a10 10 0 0 0-7-3h-58v-40c0-11-9-20-20-20H110c-11 0-20 9-20 20v138c0 11 9 20 20 20z" stroke="#60a5fa" stroke-width="16" stroke-linecap="round" stroke-linejoin="round"/>
  <circle cx="180" cy="310" r="26" fill="#0f172a" stroke="#f59e0b" stroke-width="14"/>
  <circle cx="340" cy="310" r="26" fill="#0f172a" stroke="#f59e0b" stroke-width="14"/>
  <!-- Rupee & Percentage Symbol Overlay -->
  <text x="210" y="225" font-family="system-ui, -apple-system, sans-serif" font-weight="900" font-size="95" fill="url(#gold)">₹</text>
  <path d="M290 150l60 60M300 200a10 10 0 1 0 0-20 10 10 0 0 0 0 20zm40-40a10 10 0 1 0 0-20 10 10 0 0 0 0 20z" stroke="#38bdf8" stroke-width="12" stroke-linecap="round"/>
</svg>
